<svg width="83" height="82" viewBox="0 0 83 82" fill="none" xmlns="http://www.w3.org/2000/svg">
<rect x="1" y="0.5" width="81" height="81" rx="40.5" stroke="url(#paint0_linear_134_6223)"/>
<rect x="1" y="0.5" width="81" height="81" rx="40.5" stroke="url(#paint1_linear_134_6223)"/>
<rect x="11" y="10.5" width="61" height="61" rx="30.5" stroke="url(#paint2_linear_134_6223)"/>
<rect x="11" y="10.5" width="61" height="61" rx="30.5" stroke="url(#paint3_linear_134_6223)"/>
<path fill-rule="evenodd" clip-rule="evenodd" d="M26.1992 28.675C26.1992 27.9709 26.7701 27.4 27.4742 27.4H45.3242C46.0284 27.4 46.5992 27.9709 46.5992 28.675C46.5992 29.3792 46.0284 29.95 45.3242 29.95H44.8992V53.325C44.8992 54.0292 44.3284 54.6 43.6242 54.6H41.0742C40.3701 54.6 39.7992 54.0292 39.7992 53.325V49.075C39.7992 48.3709 39.2284 47.8 38.5242 47.8H34.2742C33.5701 47.8 32.9992 48.3709 32.9992 49.075V53.325C32.9992 54.0292 32.4284 54.6 31.7242 54.6H27.4742C26.7701 54.6 26.1992 54.0292 26.1992 53.325C26.1992 52.6209 26.7701 52.05 27.4742 52.05H27.8992V29.95H27.4742C26.7701 29.95 26.1992 29.3792 26.1992 28.675ZM31.2992 33.35C31.2992 32.8806 31.6798 32.5 32.1492 32.5H33.8492C34.3187 32.5 34.6992 32.8806 34.6992 33.35V35.05C34.6992 35.5195 34.3187 35.9 33.8492 35.9H32.1492C31.6798 35.9 31.2992 35.5195 31.2992 35.05V33.35ZM32.1492 39.3C31.6798 39.3 31.2992 39.6806 31.2992 40.15V41.85C31.2992 42.3195 31.6798 42.7 32.1492 42.7H33.8492C34.3187 42.7 34.6992 42.3195 34.6992 41.85V40.15C34.6992 39.6806 34.3187 39.3 33.8492 39.3H32.1492ZM38.0992 33.35C38.0992 32.8806 38.4798 32.5 38.9492 32.5H40.6492C41.1187 32.5 41.4992 32.8806 41.4992 33.35V35.05C41.4992 35.5195 41.1187 35.9 40.6492 35.9H38.9492C38.4798 35.9 38.0992 35.5195 38.0992 35.05V33.35ZM38.9492 39.3C38.4798 39.3 38.0992 39.6806 38.0992 40.15V41.85C38.0992 42.3195 38.4798 42.7 38.9492 42.7H40.6492C41.1187 42.7 41.4992 42.3195 41.4992 41.85V40.15C41.4992 39.6806 41.1187 39.3 40.6492 39.3H38.9492Z" fill="#A685FA"/>
<path fill-rule="evenodd" clip-rule="evenodd" d="M48.7242 34.2C48.0201 34.2 47.4492 34.7709 47.4492 35.475V52.9C47.4492 53.8389 48.2103 54.6 49.1492 54.6H55.5242C56.2284 54.6 56.7992 54.0292 56.7992 53.325C56.7992 52.6209 56.2284 52.05 55.5242 52.05H55.0992V36.75H55.5242C56.2284 36.75 56.7992 36.1792 56.7992 35.475C56.7992 34.7709 56.2284 34.2 55.5242 34.2H48.7242ZM49.5742 40.15C49.5742 39.6806 49.9548 39.3 50.4242 39.3H52.1242C52.5937 39.3 52.9742 39.6806 52.9742 40.15V41.85C52.9742 42.3195 52.5937 42.7 52.1242 42.7H50.4242C49.9548 42.7 49.5742 42.3195 49.5742 41.85V40.15ZM50.4242 46.1C49.9548 46.1 49.5742 46.4806 49.5742 46.95V48.65C49.5742 49.1195 49.9548 49.5 50.4242 49.5H52.1242C52.5937 49.5 52.9742 49.1195 52.9742 48.65V46.95C52.9742 46.4806 52.5937 46.1 52.1242 46.1H50.4242Z" fill="#A685FA"/>
<defs>
<linearGradient id="paint0_linear_134_6223" x1="7.25" y1="86.5" x2="86.25" y2="-5.5" gradientUnits="userSpaceOnUse">
<stop stop-color="#A685FA"/>
<stop offset="0.323723" stop-color="#A685FA" stop-opacity="0"/>
</linearGradient>
<linearGradient id="paint1_linear_134_6223" x1="82.25" y1="-10.5" x2="7.25" y2="82" gradientUnits="userSpaceOnUse">
<stop stop-color="#A685FA"/>
<stop offset="0.576615" stop-color="#A685FA" stop-opacity="0"/>
</linearGradient>
<linearGradient id="paint2_linear_134_6223" x1="3.75" y1="13.5" x2="72.25" y2="72" gradientUnits="userSpaceOnUse">
<stop stop-color="#A685FA"/>
<stop offset="0.323723" stop-color="#A685FA" stop-opacity="0"/>
</linearGradient>
<linearGradient id="paint3_linear_134_6223" x1="84.75" y1="86" x2="12.75" y2="35" gradientUnits="userSpaceOnUse">
<stop stop-color="#A685FA"/>
<stop offset="0.576615" stop-color="#A685FA" stop-opacity="0"/>
</linearGradient>
</defs>
</svg>
