<svg width="473" height="258" viewBox="0 0 473 258" fill="none" xmlns="http://www.w3.org/2000/svg">
<g clip-path="url(#clip0_170_2577)">
<path fill-rule="evenodd" clip-rule="evenodd" d="M115.016 3.90451C115.364 3.40602 115.867 3.58729 115.554 1.43017C114.382 -2.10278 115.874 2.09362 115.736 1.49362C115.563 2.53592 114.923 2.02836 114.531 1.97217C114.652 2.43985 114.814 3.19393 115.016 3.90451Z" fill="#1A1A1A"/>
<path fill-rule="evenodd" clip-rule="evenodd" d="M40.6062 220.082C37.8966 215.577 35.6862 210.623 33.5177 206.204C32.3642 207.984 29.0587 227.461 24.4922 258H34.3724C37.3645 235.582 39.5894 221.681 40.6062 220.082Z" fill="#1A1A1A"/>
<path fill-rule="evenodd" clip-rule="evenodd" d="M32.1471 207.161C29.9567 202.979 27.9213 198.997 25.8622 195.971C24.7415 197.594 20.7417 221.467 15.2422 258H24.173C28.1691 228.013 31.0738 208.878 32.1471 207.161Z" fill="#1A1A1A"/>
<path fill-rule="evenodd" clip-rule="evenodd" d="M24.8776 194.757C23.0316 192.126 21.2695 189.629 19.5293 187.254C17.4684 199.172 15.3819 210.933 13.3793 222.622C11.342 234.491 9.33208 246.301 7.375 257.975L7.5062 257.998H15.535C18.5271 237.226 21.7051 216.074 24.8776 194.755V194.757Z" fill="#1A1A1A"/>
<path fill-rule="evenodd" clip-rule="evenodd" d="M18.8041 186.018C17.2624 183.558 15.7919 181.37 14.3924 179.309C11.7393 192.393 9.08972 205.334 6.53859 218.026C3.96377 230.848 1.43633 243.522 -1 255.95V256.459C1.31424 256.896 3.69226 257.329 6.13405 257.725C8.12576 245.958 10.2323 234.007 12.357 221.953C14.4453 210.101 16.6684 198.136 18.8041 186.018Z" fill="#1A1A1A"/>
<path fill-rule="evenodd" clip-rule="evenodd" d="M13.6963 178.395C12.377 176.425 11.3384 174.436 10.42 172.324C7.19095 186.393 3.92368 200.338 0.900592 214.064L-1 222.694V250.503C1.15753 239.646 3.39706 228.632 5.66027 217.504C8.26971 204.659 10.9684 191.57 13.6982 178.397L13.6963 178.395Z" fill="#1A1A1A"/>
<path fill-rule="evenodd" clip-rule="evenodd" d="M9.74755 171.527C8.62869 169.758 7.62464 168.077 6.73904 166.227C4.13871 176.769 1.54566 187.221 -1 197.57V218.447L0.0933416 213.6C3.19661 199.83 6.44201 185.753 9.74755 171.529V171.527Z" fill="#1A1A1A"/>
<path fill-rule="evenodd" clip-rule="evenodd" d="M6.24339 165.456C5.35778 163.995 4.7528 162.278 4.15146 160.571C2.41487 167.075 0.698324 173.541 -1 179.963V194.57C1.39806 184.97 3.83257 175.259 6.24339 165.458V165.456Z" fill="#1A1A1A"/>
<path fill-rule="evenodd" clip-rule="evenodd" d="M3.50457 160.112C2.90505 158.628 2.36385 157.105 1.97936 155.635L-1 166.236V177.03C0.486944 171.422 1.98847 165.779 3.50457 160.112Z" fill="#1A1A1A"/>
<path fill-rule="evenodd" clip-rule="evenodd" d="M1.73518 154.469C1.25411 153.037 0.873258 151.667 0.541611 150.44L-1 155.706V164.175L1.73518 154.469Z" fill="#1A1A1A"/>
<path fill-rule="evenodd" clip-rule="evenodd" d="M0.435922 149.675C0.158942 148.377 0.0350299 147.072 -0.139905 145.812L-1 148.667V154.547L0.435922 149.675Z" fill="#1A1A1A"/>
<path fill-rule="evenodd" clip-rule="evenodd" d="M-0.0724819 140.468C-0.0597262 139.417 0.160764 138.189 0.381255 136.89L-1 141.324V143.446L-0.0724819 140.468Z" fill="#1A1A1A"/>
<path fill-rule="evenodd" clip-rule="evenodd" d="M0.401299 136.558C0.609034 135.45 0.958904 134.385 1.36162 133.176L-1 140.778V141.03L0.403122 136.558H0.401299Z" fill="#1A1A1A"/>
<path fill-rule="evenodd" clip-rule="evenodd" d="M1.59304 132.461C2.0814 131.41 2.62078 130.259 2.99799 129.36C1.66958 133.665 0.333877 137.97 -1 142.266V140.802C-0.128971 138.023 0.738413 135.246 1.59304 132.461Z" fill="#1A1A1A"/>
<path fill-rule="evenodd" clip-rule="evenodd" d="M3.41528 128.675C3.98746 127.676 4.74915 126.552 5.5072 125.491C3.3351 132.599 1.15753 139.703 -1 146.787V142.98C0.476011 138.213 1.95384 133.437 3.41346 128.675H3.41528Z" fill="#1A1A1A"/>
<path fill-rule="evenodd" clip-rule="evenodd" d="M116.662 258C111.408 252.895 106.415 248.146 101.677 243.299C98.7618 248.09 95.7132 253.033 92.6719 258H116.662Z" fill="#1A1A1A"/>
<path fill-rule="evenodd" clip-rule="evenodd" d="M98.9729 240.85C93.5499 235.151 88.5187 230.427 83.7846 226.064C78.4363 233.434 73.4798 240.589 68.25 248.52C70.5879 251.384 72.9751 254.599 75.4733 258.002H88.2509C91.8516 252.116 95.4232 246.426 98.9729 240.85Z" fill="#1A1A1A"/>
<path fill-rule="evenodd" clip-rule="evenodd" d="M81.5688 223.727C76.8784 219.54 72.7474 215.559 68.7366 211.729C64.048 218.014 59.2373 224.717 54.5469 231.33C58.1276 235.907 62.08 240.587 66.1454 245.759C71.3133 238.285 76.2625 231.04 81.5688 223.727Z" fill="#1A1A1A"/>
<path fill-rule="evenodd" clip-rule="evenodd" d="M66.7918 209.967C63.0926 206.728 59.5466 203.439 56.2265 200.385C52.0699 205.89 47.7585 211.238 43.3906 216.942C46.4319 220.696 49.5334 224.659 52.8389 229.116C57.4947 222.698 62.2016 216.076 66.7936 209.967H66.7918Z" fill="#1A1A1A"/>
<path fill-rule="evenodd" clip-rule="evenodd" d="M44.7039 189.148C42.1583 186.627 39.6527 184.377 37.2328 182.202C33.8015 186.264 30.0531 190.732 26.6328 195.052C28.5717 197.659 30.8221 200.443 33.0653 203.615C36.9612 198.514 40.7661 194.066 44.7039 189.148Z" fill="#1A1A1A"/>
<path fill-rule="evenodd" clip-rule="evenodd" d="M35.8239 181.455C33.6609 179.338 31.4724 177.416 29.57 175.27C26.5013 178.89 23.2833 182.621 20.293 186.241C21.9239 188.686 23.7425 191.137 25.6412 193.749C28.9595 189.681 32.4965 185.438 35.8239 181.455Z" fill="#1A1A1A"/>
<path fill-rule="evenodd" clip-rule="evenodd" d="M28.1947 174.034C26.4363 172.089 24.7507 170.318 23.1362 168.558C20.3318 171.75 17.4399 175.123 14.7812 178.268C16.0696 180.286 17.5911 182.331 19.1856 184.582C22.1741 181 25.3356 177.413 28.1966 174.034H28.1947Z" fill="#1A1A1A"/>
<path fill-rule="evenodd" clip-rule="evenodd" d="M22.1222 167.577C20.586 166.069 19.2193 164.499 17.7597 163.043C15.3307 165.779 12.7686 168.581 10.3359 171.317C11.36 173.287 12.5572 175.223 13.6579 177.306C16.4787 174.137 19.4216 170.778 22.1222 167.577Z" fill="#1A1A1A"/>
<path fill-rule="evenodd" clip-rule="evenodd" d="M17.1923 162.282C15.9076 160.897 14.7377 159.289 13.73 157.857C11.4686 160.297 9.34207 162.701 6.92578 165.298C7.9189 167.05 8.92295 168.704 9.98532 170.503C12.3597 167.853 14.8142 165.103 17.1941 162.282H17.1923Z" fill="#1A1A1A"/>
<path fill-rule="evenodd" clip-rule="evenodd" d="M13.0808 156.73C11.9874 155.455 11.049 154.246 10.0686 152.999C7.97121 155.274 5.90115 157.614 4.08984 159.608C4.693 161.184 5.51301 162.663 6.17813 164.356C8.43223 161.814 10.7702 159.199 13.0826 156.73H13.0808Z" fill="#1A1A1A"/>
<path fill-rule="evenodd" clip-rule="evenodd" d="M9.67617 152.606C8.80696 151.364 8.09811 150.017 7.33824 148.928C5.66907 150.665 3.9835 152.586 2.33984 154.442C2.8282 155.883 3.26554 157.415 3.86323 158.9C5.78023 156.788 7.68811 154.674 9.67617 152.606Z" fill="#1A1A1A"/>
<path fill-rule="evenodd" clip-rule="evenodd" d="M7.01676 148.19C6.26418 147.148 5.81591 145.944 5.37128 144.826C3.9226 146.339 2.41197 147.924 0.996094 149.47C1.27307 150.793 1.70494 152.097 1.97828 153.657C3.61829 151.883 5.40773 149.885 7.01858 148.19H7.01676Z" fill="#1A1A1A"/>
<path fill-rule="evenodd" clip-rule="evenodd" d="M5.04402 144.342C4.70508 143.176 4.31148 142.196 3.97255 141.097C2.68605 142.438 1.54168 143.753 0.191406 145.17C0.369985 146.374 0.54492 147.672 0.8219 148.924C2.29062 147.307 3.69921 145.776 5.04402 144.344V144.342Z" fill="#1A1A1A"/>
<path fill-rule="evenodd" clip-rule="evenodd" d="M3.81323 140.312C3.62372 139.237 3.38319 138.285 3.34492 137.149C2.16775 138.423 1.14001 139.538 0.161472 140.575C0.0339159 141.916 0.0648938 143.091 0.135961 144.405C1.28033 143.158 2.62696 141.646 3.81323 140.314V140.312Z" fill="#1A1A1A"/>
<path fill-rule="evenodd" clip-rule="evenodd" d="M21.1507 110.771C22.6377 109.971 24.0335 109.219 25.5642 108.606C25.5624 108.826 25.6079 108.958 25.7464 108.943C24.121 109.705 22.399 110.713 21.0469 111.436C21.0523 111.14 21.0523 111.055 21.1507 110.771Z" fill="#1A1A1A"/>
<path fill-rule="evenodd" clip-rule="evenodd" d="M3.16285 133.29C3.3633 132.267 3.50908 131.287 3.74597 130.426C3.14463 131.02 2.3392 131.89 1.67955 132.637C1.32604 133.794 0.976168 134.925 0.617188 136.096C1.58662 135.068 2.30276 134.245 3.16103 133.29H3.16285Z" fill="#1A1A1A"/>
<path fill-rule="evenodd" clip-rule="evenodd" d="M4.02393 129.65C4.35922 128.704 4.73642 127.743 5.11363 126.818C4.51411 127.509 4.0622 128.107 3.46086 128.774C2.83401 129.884 2.34747 130.939 1.85547 132.101C2.61899 131.201 3.22397 130.502 4.02575 129.65H4.02393Z" fill="#1A1A1A"/>
<path fill-rule="evenodd" clip-rule="evenodd" d="M11.1272 118.46C11.9946 117.556 12.9039 116.724 13.857 115.977C13.6146 116.314 13.3704 116.667 13.1754 116.952C12.1222 117.889 11.1163 118.759 10.1523 119.655C10.4931 119.279 10.6899 118.998 11.1272 118.46Z" fill="#1A1A1A"/>
<path fill-rule="evenodd" clip-rule="evenodd" d="M170.669 249.556C161.49 243.377 153.543 237.524 145.25 232.144C140.305 240.536 135.164 248.833 129.973 258.002H166.151C167.644 255.156 169.149 252.341 170.669 249.556Z" fill="#1A1A1A"/>
<path fill-rule="evenodd" clip-rule="evenodd" d="M141.533 229.76C134.239 224.617 127.416 219.692 121.102 215.179C115.807 223.062 110.562 230.916 105.34 239.257C111.47 244.932 117.744 251.251 124.914 257.387C130.412 247.724 136.127 238.704 141.533 229.76Z" fill="#1A1A1A"/>
<path fill-rule="evenodd" clip-rule="evenodd" d="M118.081 213.074C112.031 209.572 106.678 205.709 101.472 202.113C96.6682 208.544 91.7063 215.287 86.9102 222.322C91.7937 226.899 96.8031 231.571 102.417 236.929C107.767 228.536 112.768 220.629 118.081 213.074Z" fill="#1A1A1A"/>
<path fill-rule="evenodd" clip-rule="evenodd" d="M99.1019 200.2C94.0872 196.97 89.5152 193.696 85.1108 190.946C80.7028 196.451 76.0124 202.693 71.5352 209.059C75.6352 212.661 80.0049 216.175 84.7209 220.211C89.3366 213.489 94.2657 206.809 99.1019 200.2Z" fill="#1A1A1A"/>
<path fill-rule="evenodd" clip-rule="evenodd" d="M83.0097 189.605C78.8149 187.116 75.0247 184.466 71.2654 182.302C67.0852 187.216 63.0781 192.326 58.8086 197.817C62.1652 200.742 65.8588 203.726 69.5653 207.041C73.9969 201.228 78.5908 195.07 83.0097 189.605Z" fill="#1A1A1A"/>
<path fill-rule="evenodd" clip-rule="evenodd" d="M33.0171 105.804C32.0422 105.704 31.1602 105.599 30.373 105.447C28.7585 107.036 27.277 108.519 25.6953 110.027C26.4843 110.136 27.2278 110.394 28.066 110.589C29.6951 109.052 31.2677 107.453 33.0171 105.804Z" fill="#1A1A1A"/>
<path fill-rule="evenodd" clip-rule="evenodd" d="M58.1206 173.434C55.1522 171.659 52.4644 169.779 49.7018 168.054C46.2797 172.121 42.7555 176.209 39.2969 180.366C41.7624 182.35 44.319 184.547 47.0705 186.755C50.7132 182.274 54.3668 177.891 58.1206 173.434Z" fill="#1A1A1A"/>
<path fill-rule="evenodd" clip-rule="evenodd" d="M48.1614 167.501C45.6995 165.773 43.2158 164.218 40.8542 162.628C37.9149 166.016 34.8408 169.56 31.8906 173.138C33.8987 175.141 36.0326 177.039 38.252 179.104C41.512 175.335 44.8321 171.411 48.1614 167.501Z" fill="#1A1A1A"/>
<path fill-rule="evenodd" clip-rule="evenodd" d="M39.3845 161.688C37.1669 160.341 35.3811 158.765 33.4094 157.482C30.6086 160.607 27.7823 163.7 25.1328 166.783C26.7473 168.472 28.5386 170.122 30.4592 171.973C33.5115 168.253 36.4908 164.907 39.3827 161.688H39.3845Z" fill="#1A1A1A"/>
<path fill-rule="evenodd" clip-rule="evenodd" d="M32.2915 156.625C30.4438 155.33 28.7655 154.018 27.0016 153.005C24.5543 155.655 21.9831 158.414 19.3828 161.515C20.7896 162.976 22.2638 164.403 23.9092 166.063C26.6116 163.003 29.4908 159.679 32.2915 156.625Z" fill="#1A1A1A"/>
<path fill-rule="evenodd" clip-rule="evenodd" d="M26.3795 152.448C24.8342 151.221 23.3509 150.188 22.079 148.999C19.8376 151.426 17.5252 153.942 15.293 156.306C16.4574 157.68 17.6309 159.199 19.0231 160.687C21.4631 157.832 23.9304 155.14 26.3795 152.446V152.448Z" fill="#1A1A1A"/>
<path fill-rule="evenodd" clip-rule="evenodd" d="M21.1692 148.185C19.8116 147.3 18.7165 146.12 17.6268 145.107C15.4893 147.333 13.3318 149.675 11.207 152.059C12.3459 153.092 13.2315 154.471 14.2793 155.727C16.5134 153.249 18.9297 150.632 21.1692 148.187V148.185Z" fill="#1A1A1A"/>
<path fill-rule="evenodd" clip-rule="evenodd" d="M17.0294 144.788C15.8468 143.927 15.0742 142.779 14.1047 141.795C12.2752 143.698 10.3819 145.725 8.62891 147.657C9.49265 148.738 10.2562 149.945 11.1272 151.192C13.0934 149.051 15.045 146.905 17.0294 144.788Z" fill="#1A1A1A"/>
<path fill-rule="evenodd" clip-rule="evenodd" d="M8.73579 135.273C8.34037 134.33 7.9905 133.493 7.68983 132.628C6.43431 133.955 5.32457 135.13 4.16016 136.373C4.34967 137.381 4.64305 138.309 4.73234 139.489C6.15733 138.019 7.42925 136.634 8.73761 135.275L8.73579 135.273Z" fill="#1A1A1A"/>
<path fill-rule="evenodd" clip-rule="evenodd" d="M7.36547 132.324C7.26525 131.316 6.96275 130.625 6.90809 129.782C5.9587 130.772 4.95465 131.841 3.99798 132.884C3.94878 133.844 4.04171 134.849 4.13829 135.806C5.20247 134.64 6.26119 133.455 7.36547 132.324Z" fill="#1A1A1A"/>
<path fill-rule="evenodd" clip-rule="evenodd" d="M7.05582 126.472C7.13418 125.845 7.36378 124.92 7.53507 124.226C6.89364 124.935 6.19755 125.734 5.6035 126.387C5.13154 127.368 4.80172 128.299 4.51562 129.242C5.36114 128.381 6.16293 127.435 7.054 126.474L7.05582 126.472Z" fill="#1A1A1A"/>
<path fill-rule="evenodd" clip-rule="evenodd" d="M8.67099 121.734C9.0245 121.125 9.57118 120.211 10.3074 119.303C9.91558 119.816 9.4254 120.369 9.22495 120.764C8.34299 121.821 7.69792 122.662 7 123.614C7.49565 123.024 8.13343 122.339 8.67281 121.734H8.67099Z" fill="#1A1A1A"/>
<path fill-rule="evenodd" clip-rule="evenodd" d="M13.6453 115.438C14.3177 114.697 15.0302 114.039 15.6916 113.45C15.2616 114.006 14.8771 114.534 14.4489 114.991C13.638 115.743 12.8234 116.557 12.1055 117.207C12.6849 116.56 13.1168 116.071 13.6471 115.438H13.6453Z" fill="#1A1A1A"/>
<path fill-rule="evenodd" clip-rule="evenodd" d="M11.8941 119.192C12.0071 118.627 12.2622 118.018 12.3752 117.447C11.6973 118.246 10.9703 119.049 10.2906 119.772C10.0354 120.434 9.67829 121.157 9.41406 121.872C10.1958 121.04 11.0705 120.15 11.8941 119.192Z" fill="#1A1A1A"/>
<path fill-rule="evenodd" clip-rule="evenodd" d="M322.393 162.686C307.429 159.536 293.678 156.431 280.728 153.476C275.737 161.526 270.642 169.214 265.871 177.463C278.434 180.96 292.294 185.467 307.64 190.056C312.633 180.556 317.473 171.569 322.395 162.686H322.393Z" fill="#1A1A1A"/>
<path fill-rule="evenodd" clip-rule="evenodd" d="M236.095 153.596C225.648 151.279 216.457 148.995 207.309 147.267C202.823 153.344 197.937 159.637 193.066 166.236C201.992 168.947 211.36 171.859 221.428 175.08C226.118 167.843 231.224 160.411 236.095 153.594V153.596Z" fill="#1A1A1A"/>
<path fill-rule="evenodd" clip-rule="evenodd" d="M223.802 106.304C215.482 105.97 207.697 105.467 200.186 105.068C195.96 109.683 191.824 114.184 187.848 118.861C195.133 119.522 202.87 120.363 211.101 121.567C215.209 116.296 219.309 111.191 223.802 106.304Z" fill="#1A1A1A"/>
<path fill-rule="evenodd" clip-rule="evenodd" d="M268.013 258C257.347 252.342 247.367 246.991 237.968 241.834C235.282 247.115 232.59 252.5 229.93 258H268.011H268.013Z" fill="#1A1A1A"/>
<path fill-rule="evenodd" clip-rule="evenodd" d="M231.58 238.523C219.334 232.01 208.545 225.73 197.988 220.111C192.451 229.693 186.778 239.998 181.133 250.283C184.588 252.839 188.105 255.402 191.711 258H222.075C225.291 251.344 228.453 244.874 231.58 238.523Z" fill="#1A1A1A"/>
<path fill-rule="evenodd" clip-rule="evenodd" d="M193.105 217.589C183.547 212.898 174.724 208.54 166.618 204.221C161.396 212.151 155.832 220.664 150.809 229.446C158.704 234.917 167.198 240.531 176.537 246.578C181.932 236.449 187.565 227.039 193.105 217.589Z" fill="#1A1A1A"/>
<path fill-rule="evenodd" clip-rule="evenodd" d="M162.184 203.017C154.288 198.978 147.092 195.447 140.27 192.074C135.567 198.759 130.605 205.676 125.617 212.711C132.168 217.174 139.34 222.094 146.894 227.269C152.076 218.539 157.074 210.817 162.184 203.015V203.017Z" fill="#1A1A1A"/>
<path fill-rule="evenodd" clip-rule="evenodd" d="M136.06 189.614C129.755 186.706 123.802 183.871 118.164 181.051C113.665 186.817 109.146 192.902 104.621 199.154C109.958 202.85 115.544 206.381 121.641 209.907C126.366 203.222 131.251 196.381 136.06 189.616V189.614Z" fill="#1A1A1A"/>
<path fill-rule="evenodd" clip-rule="evenodd" d="M114.905 179.399C109.781 176.503 104.875 174.366 100.008 172.248C95.7733 177.639 91.4272 183.148 86.9609 188.715C91.5639 191.298 96.3764 194.296 101.227 197.626C105.721 191.465 110.415 185.289 114.905 179.399Z" fill="#1A1A1A"/>
<path fill-rule="evenodd" clip-rule="evenodd" d="M97.8793 171.656C93.5551 169.562 89.2856 167.593 85.1291 165.851C81.4482 170.495 77.554 175.123 73.7109 179.753C77.4848 182.089 81.481 184.606 85.5336 187.303C89.7029 182.002 93.9122 176.699 97.8774 171.656H97.8793Z" fill="#1A1A1A"/>
<path fill-rule="evenodd" clip-rule="evenodd" d="M70.409 158.918C66.9741 157.671 63.9747 156.273 60.9954 154.897C57.7901 158.508 54.4572 162.3 51.3867 165.873C54.0927 167.619 56.724 169.499 59.953 171.154C63.3388 167.08 66.8375 162.966 70.409 158.916V158.918Z" fill="#1A1A1A"/>
<path fill-rule="evenodd" clip-rule="evenodd" d="M59.4101 154.252C56.5164 152.881 53.9033 151.517 51.3321 150.507C48.3473 153.746 45.5848 156.9 42.4961 160.402C44.8504 161.934 47.274 163.413 49.7796 165.108C53.0614 161.43 56.1446 157.81 59.4101 154.252Z" fill="#1A1A1A"/>
<path fill-rule="evenodd" clip-rule="evenodd" d="M50.0526 150.003C47.7073 148.899 45.579 147.753 43.3704 146.796C40.566 149.798 37.7798 152.744 35.2852 155.716C37.1056 157.058 39.2467 158.343 41.3568 159.723C44.3526 156.407 47.219 153.195 50.0507 150.003H50.0526Z" fill="#1A1A1A"/>
<path fill-rule="evenodd" clip-rule="evenodd" d="M41.7589 146.377C39.6196 145.417 37.7008 144.512 35.8421 143.475C33.619 145.877 30.9804 148.7 28.7227 151.283C30.3335 152.448 32.163 153.608 34.0126 154.923C36.5127 152.02 39.1987 149.162 41.7589 146.377Z" fill="#1A1A1A"/>
<path fill-rule="evenodd" clip-rule="evenodd" d="M34.817 142.952C33.0312 142.158 31.2509 141.373 29.6838 140.573C27.5044 142.886 25.4088 145.174 23.2422 147.434C24.6143 148.471 26.1979 149.428 27.6921 150.708C30.0519 148.043 32.3424 145.498 34.817 142.953V142.952Z" fill="#1A1A1A"/>
<path fill-rule="evenodd" clip-rule="evenodd" d="M29.2238 140.131C27.6657 139.389 26.3173 138.561 24.8285 137.89C22.9425 139.823 20.9453 141.949 18.9336 144.037C20.1764 144.969 21.3772 146.02 22.7348 147.092C24.8486 144.766 27.0444 142.491 29.2238 140.131Z" fill="#1A1A1A"/>
<path fill-rule="evenodd" clip-rule="evenodd" d="M24.1857 137.238C23.0013 136.362 21.8259 135.539 20.6542 134.921C18.7226 136.948 16.9751 138.789 15.2148 140.667C16.1351 141.657 17.161 142.576 18.2434 143.555C20.2551 141.394 22.2505 139.335 24.1857 137.236V137.238Z" fill="#1A1A1A"/>
<path fill-rule="evenodd" clip-rule="evenodd" d="M19.9749 134.479C18.9089 133.899 17.8976 133.29 17.0357 132.528C15.3993 134.26 13.9051 135.826 12.1484 137.7C12.9065 138.543 13.67 139.366 14.5356 140.216C16.294 138.389 18.0397 136.591 19.9749 134.479Z" fill="#1A1A1A"/>
<path fill-rule="evenodd" clip-rule="evenodd" d="M183.165 128.113C176.201 127.156 169.564 126.338 163.122 125.33C159.104 130.15 155.057 134.798 150.797 139.636C156.936 140.93 163.471 142.152 170.431 143.871C174.706 138.48 178.992 133.29 183.167 128.113H183.165Z" fill="#1A1A1A"/>
<path fill-rule="evenodd" clip-rule="evenodd" d="M53.921 103.297C52.0259 103.311 50.2292 103.315 48.5308 103.344C46.541 105.338 44.4891 107.283 42.5703 109.219C44.2285 109.19 45.6663 109.467 47.4812 109.533C49.5768 107.439 51.707 105.351 53.9228 103.295L53.921 103.297Z" fill="#1A1A1A"/>
<path fill-rule="evenodd" clip-rule="evenodd" d="M53.62 97.1028C51.9017 97.3112 50.2726 97.4689 48.6945 97.5976C46.763 99.4103 44.917 101.152 43.1094 102.864C44.5617 102.873 46.0614 102.854 47.6085 102.793C49.5473 100.948 51.6083 99.0007 53.62 97.1028Z" fill="#1A1A1A"/>
<path fill-rule="evenodd" clip-rule="evenodd" d="M383.669 258C378.59 255.859 373.629 253.751 368.789 251.668C367.976 253.747 367.178 255.859 366.391 258H383.671H383.669Z" fill="#1A1A1A"/>
<path fill-rule="evenodd" clip-rule="evenodd" d="M179.427 82.6248C173.421 82.9384 167.718 83.2139 162.286 83.4713C158.936 86.7922 155.622 90.1602 152.203 93.3759C157.637 93.4085 163.075 93.3324 168.924 93.2526C172.317 89.6562 175.909 86.1396 179.426 82.6248H179.427Z" fill="#1A1A1A"/>
<path fill-rule="evenodd" clip-rule="evenodd" d="M296.052 221.081C280.767 214.834 266.75 209.311 253.412 204.204C248.215 213.805 242.651 224.121 237.578 235.173C250.673 242.014 264.389 248.96 279.723 256.392C284.907 244.383 290.507 232.484 296.05 221.081H296.052Z" fill="#1A1A1A"/>
<path fill-rule="evenodd" clip-rule="evenodd" d="M209.513 187.045C199.842 183.453 190.636 180.257 182.101 177.112C177.13 184.219 172.064 191.755 167.137 199.374C175.295 203.546 184.28 207.785 193.463 212.072C198.813 203.679 204.152 195.039 209.511 187.047L209.513 187.045Z" fill="#1A1A1A"/>
<path fill-rule="evenodd" clip-rule="evenodd" d="M150.827 166.892C144.145 164.631 138.047 162.567 132.242 160.44C128.032 165.621 123.628 171.25 119.402 177.036C124.931 179.704 130.983 182.535 137.093 185.461C141.51 179.033 146.268 172.734 150.829 166.892H150.827Z" fill="#1A1A1A"/>
<path fill-rule="evenodd" clip-rule="evenodd" d="M128.923 159.413C123.388 157.556 118.204 155.916 113.235 154.417C109.073 159.327 105.033 164.312 100.871 169.27C105.598 171.288 110.414 173.314 115.624 175.836C120.138 170.046 124.462 164.47 128.923 159.413Z" fill="#1A1A1A"/>
<path fill-rule="evenodd" clip-rule="evenodd" d="M111.093 153.871C106.487 152.387 102.017 150.926 97.6305 149.441C93.9769 153.77 90.3215 158.024 86.5859 162.438C90.6258 164.245 94.8917 166.274 99.2323 168.228C103.296 163.332 107.308 158.494 111.091 153.869L111.093 153.871Z" fill="#1A1A1A"/>
<path fill-rule="evenodd" clip-rule="evenodd" d="M94.7356 148.562C90.805 147.378 86.9546 146.24 83.4377 145.107C79.7641 149.198 76.2763 153.005 72.8359 157.096C76.1342 158.396 79.6839 159.869 83.5707 161.726C87.2371 157.069 91.1002 152.706 94.7356 148.562Z" fill="#1A1A1A"/>
<path fill-rule="evenodd" clip-rule="evenodd" d="M81.7113 144.741C78.1379 143.756 74.9362 142.629 71.7181 141.704C68.5656 145.107 65.3512 148.765 62.3555 152.309C65.2619 153.579 68.2504 154.991 71.7199 156.168C74.9417 152.49 78.362 148.507 81.7094 144.741H81.7113Z" fill="#1A1A1A"/>
<path fill-rule="evenodd" clip-rule="evenodd" d="M70.006 141.153C66.9265 140.325 64.0273 139.607 61.2903 138.808C58.402 141.956 55.43 145.054 52.6875 148.138C55.1931 149.089 57.9392 150.211 60.6652 151.558C63.7139 147.989 66.8517 144.594 70.006 141.153Z" fill="#1A1A1A"/>
<path fill-rule="evenodd" clip-rule="evenodd" d="M60.0323 138.412C57.4228 137.695 54.9264 136.933 52.5374 136.099C49.8678 138.973 47.1728 141.837 44.6562 144.63C46.7591 145.638 49.0806 146.639 51.4641 147.576C54.3159 144.559 57.1349 141.458 60.0341 138.412H60.0323Z" fill="#1A1A1A"/>
<path fill-rule="evenodd" clip-rule="evenodd" d="M50.8978 135.811C48.5872 135.112 46.5353 134.323 44.5528 133.699C42.0982 136.159 39.6819 138.681 37.293 141.126C39.0514 142.216 41.0668 143.2 43.248 144.081C45.8192 141.264 48.3193 138.548 50.8996 135.811H50.8978Z" fill="#1A1A1A"/>
<path fill-rule="evenodd" clip-rule="evenodd" d="M43.0955 133.58C41.1749 132.918 39.2652 132.362 37.4138 131.852C35.3893 133.97 33.1552 136.283 31.1016 138.532C32.7653 139.217 34.3889 139.997 36.171 140.758C38.4124 138.407 40.7375 136.043 43.0955 133.578V133.58Z" fill="#1A1A1A"/>
<path fill-rule="evenodd" clip-rule="evenodd" d="M36.9077 131.466C35.3096 130.814 33.7243 130.21 32.0952 129.673C30.16 131.676 28.0699 133.917 26.1602 135.94C27.5997 136.663 28.9956 137.434 30.4989 138.177C32.6018 135.951 34.7903 133.761 36.9095 131.468L36.9077 131.466Z" fill="#1A1A1A"/>
<path fill-rule="evenodd" clip-rule="evenodd" d="M31.3534 129.222C29.8829 128.675 28.5636 128.191 27.2005 127.776C25.3109 129.644 23.4595 131.472 21.6445 133.418C22.8618 134.004 24.0371 134.713 25.2671 135.489C27.2771 133.429 29.2724 131.298 31.3516 129.222H31.3534Z" fill="#1A1A1A"/>
<path fill-rule="evenodd" clip-rule="evenodd" d="M138.405 122.794C133.186 122.261 128.162 121.857 123.344 121.33C119.781 125.163 116.148 129.09 112.523 132.962C117.172 133.741 121.813 134.675 127.025 135.73C130.826 131.334 134.587 126.962 138.405 122.794Z" fill="#1A1A1A"/>
<path fill-rule="evenodd" clip-rule="evenodd" d="M121.159 120.982C116.616 120.411 112.177 120.024 108.19 119.493C104.699 123.075 101.246 126.739 98.0039 130.326C101.951 131.091 106.024 131.863 110.422 132.566C113.914 128.809 117.595 124.803 121.159 120.982Z" fill="#1A1A1A"/>
<path fill-rule="evenodd" clip-rule="evenodd" d="M106.21 119.274C102.066 118.875 98.3508 118.522 94.7464 118.175C91.625 121.344 88.3504 124.741 85.2344 127.995C88.7003 128.647 92.2846 129.307 96.0585 130.107C99.3421 126.405 102.806 122.751 106.21 119.274Z" fill="#1A1A1A"/>
<path fill-rule="evenodd" clip-rule="evenodd" d="M93.0455 117.98C89.5177 117.643 86.1684 117.438 82.9704 117.142C80.042 120.097 76.9279 123.365 74.1016 126.273C77.1465 126.786 80.3391 127.166 83.61 127.681C86.5966 124.565 89.9259 121.168 93.0473 117.98H93.0455Z" fill="#1A1A1A"/>
<path fill-rule="evenodd" clip-rule="evenodd" d="M81.4048 117.028C78.3179 116.685 75.4333 116.267 72.5378 116.152C69.8172 118.859 67.031 121.676 64.2812 124.587C66.8761 125.035 69.6386 125.548 72.618 126.101C75.4844 123.041 78.5238 119.977 81.4048 117.028Z" fill="#1A1A1A"/>
<path fill-rule="evenodd" clip-rule="evenodd" d="M71.1971 116.105C68.5002 115.848 66.0129 115.61 63.4891 115.444C60.8341 118.009 58.1663 120.648 55.8594 123.099C58.0716 123.541 60.4405 123.998 63.0572 124.326C65.7195 121.485 68.369 118.803 71.1953 116.105H71.1971Z" fill="#1A1A1A"/>
<path fill-rule="evenodd" clip-rule="evenodd" d="M62.3544 115.358C59.9363 115.112 57.5801 114.954 55.47 114.726C53.03 117.1 50.6283 119.549 48.2539 121.915C50.242 122.381 52.5216 122.618 54.6627 122.934C57.1665 120.456 59.6465 117.923 62.3544 115.36V115.358Z" fill="#1A1A1A"/>
<path fill-rule="evenodd" clip-rule="evenodd" d="M54.2529 114.764C52.1081 114.574 50.1109 114.383 48.2176 114.207C46.1439 116.354 43.9591 118.513 41.7578 120.615C43.5673 120.92 45.4861 121.382 47.3138 121.79C49.5934 119.421 51.8621 117.171 54.2529 114.764Z" fill="#1A1A1A"/>
<path fill-rule="evenodd" clip-rule="evenodd" d="M47.0568 114.082C45.2236 113.954 43.5854 113.74 41.9071 113.658C39.9081 115.556 37.9 117.53 35.8828 119.533C37.4317 119.82 38.8895 120.166 40.5404 120.438C42.6943 118.33 44.9302 116.174 47.0568 114.081V114.082Z" fill="#1A1A1A"/>
<path fill-rule="evenodd" clip-rule="evenodd" d="M40.9465 113.488C39.3684 113.298 37.9835 113.127 36.5111 112.998C34.5996 114.864 32.6772 116.671 30.793 118.612C32.0868 118.926 33.4789 119.154 34.924 119.521C36.8956 117.503 38.9511 115.471 40.9483 113.488H40.9465Z" fill="#1A1A1A"/>
<path fill-rule="evenodd" clip-rule="evenodd" d="M35.892 112.964C34.5618 112.745 33.4247 112.464 32.2439 112.241C30.5164 113.968 28.7343 115.719 27.1289 117.342C28.1712 117.652 29.3593 117.951 30.4563 118.317C32.2457 116.528 34.1208 114.711 35.892 112.964Z" fill="#1A1A1A"/>
<path fill-rule="evenodd" clip-rule="evenodd" d="M31.4898 112.088C30.4547 111.884 29.3286 111.822 28.392 111.57C26.7556 113.183 25.1083 114.782 23.5977 116.323C24.4414 116.607 25.2887 116.917 26.28 117.184C27.9309 115.567 29.7167 113.892 31.4916 112.088H31.4898Z" fill="#1A1A1A"/>
<path fill-rule="evenodd" clip-rule="evenodd" d="M19.723 113.06C19.4042 112.788 19.1363 112.366 18.9085 112.065C17.8206 113.216 16.7328 114.229 15.8253 115.248C15.8089 115.748 15.9838 116.191 16.2043 116.618C17.3961 115.438 18.4912 114.311 19.7212 113.06H19.723Z" fill="#1A1A1A"/>
<path fill-rule="evenodd" clip-rule="evenodd" d="M40.9375 103.663C43.5397 103.112 46.0963 102.559 49.0319 101.979C49.7225 101.627 50.373 101.466 51.204 101.156C48.088 101.917 45.2526 102.521 42.5119 103.168C41.8705 103.601 41.4423 103.402 40.9375 103.663Z" fill="#1A1A1A"/>
<path fill-rule="evenodd" clip-rule="evenodd" d="M58.6562 100.757C62.3408 100.438 66.0691 100.447 70.1272 100.262C70.8889 100.192 71.749 100.128 72.6383 99.8582C68.3997 100.262 64.5166 100.172 60.77 100.397C59.8881 100.725 59.2157 100.607 58.6562 100.759V100.757Z" fill="#1A1A1A"/>
<path fill-rule="evenodd" clip-rule="evenodd" d="M132.51 108.416C127.811 108.117 123.148 107.95 118.937 107.678C115.562 111.055 112.227 114.49 108.973 117.987C113.136 118.406 117.574 118.81 121.993 119.323C125.477 115.56 129.081 111.826 132.509 108.414L132.51 108.416Z" fill="#1A1A1A"/>
<path fill-rule="evenodd" clip-rule="evenodd" d="M116.889 107.56C112.684 107.493 108.691 107.408 104.943 107.247C101.902 110.368 98.5559 113.636 95.6094 116.753C99.1554 117.101 103.008 117.371 106.986 117.695C110.207 114.293 113.602 110.854 116.889 107.562V107.56Z" fill="#1A1A1A"/>
<path fill-rule="evenodd" clip-rule="evenodd" d="M103.136 107.232C99.4223 107.142 95.9327 107.147 92.4905 107.065C89.5676 109.848 86.6521 112.808 83.8203 115.857C87.053 116.033 90.3968 116.267 93.8827 116.675C96.7837 113.573 100.084 110.29 103.138 107.23L103.136 107.232Z" fill="#1A1A1A"/>
<path fill-rule="evenodd" clip-rule="evenodd" d="M90.8867 106.966C87.6085 106.899 84.5526 106.957 81.586 106.861C78.7816 109.549 76.0537 112.228 73.4023 114.887C76.1958 115.01 79.1187 115.362 82.2493 115.701C85.1029 112.79 88.0167 109.783 90.8867 106.966Z" fill="#1A1A1A"/>
<path fill-rule="evenodd" clip-rule="evenodd" d="M80.1563 106.793C77.217 106.85 74.6586 106.712 71.9781 106.737C69.3359 109.288 66.7665 111.742 64.2773 114.24C66.7501 114.463 69.3304 114.673 72.0638 114.844C74.7133 112.137 77.4084 109.578 80.1563 106.793Z" fill="#1A1A1A"/>
<path fill-rule="evenodd" clip-rule="evenodd" d="M70.7532 106.647C68.1292 106.618 65.7511 106.609 63.3768 106.523C60.9422 108.873 58.5879 111.195 56.2227 113.564C58.3437 113.974 60.6452 114.077 63.0542 114.244C65.6382 111.679 68.0635 109.201 70.755 106.647H70.7532Z" fill="#1A1A1A"/>
<path fill-rule="evenodd" clip-rule="evenodd" d="M62.2691 106.551C60.0532 106.551 57.8009 106.65 55.8803 106.598C53.6572 108.677 51.3794 110.903 49.1289 113.035C51.0623 113.149 53.0522 113.31 55.1532 113.558C57.4255 111.204 59.8801 108.896 62.2691 106.551Z" fill="#1A1A1A"/>
<path fill-rule="evenodd" clip-rule="evenodd" d="M144.285 95.8901C139.342 95.9427 134.571 96.0134 130.114 96.124C126.861 99.3832 123.618 102.517 120.414 105.749C124.798 105.896 129.41 106.116 134.041 106.315C137.512 102.809 140.994 99.2545 144.285 95.892V95.8901Z" fill="#1A1A1A"/>
<path fill-rule="evenodd" clip-rule="evenodd" d="M128.035 96.2708C123.683 96.2853 119.472 96.4756 115.554 96.6043C112.475 99.5971 109.373 102.59 106.387 105.563C110.197 105.525 114.281 105.586 118.395 105.777C121.54 102.47 124.755 99.3723 128.035 96.2708Z" fill="#1A1A1A"/>
<path fill-rule="evenodd" clip-rule="evenodd" d="M113.572 96.637C109.714 96.7131 105.979 96.8654 102.451 97.0231C99.6393 99.7258 96.7765 102.514 93.9102 105.445C97.2904 105.468 100.835 105.536 104.49 105.592C107.469 102.575 110.571 99.5264 113.57 96.637H113.572Z" fill="#1A1A1A"/>
<path fill-rule="evenodd" clip-rule="evenodd" d="M100.834 97.0411C97.3241 97.2405 94.2937 97.3022 91.092 97.4834C88.2493 100.125 85.669 102.661 82.9375 105.3C85.9879 105.314 89.0912 105.282 92.415 105.347C95.1009 102.541 97.9691 99.7529 100.834 97.0411Z" fill="#1A1A1A"/>
<path fill-rule="evenodd" clip-rule="evenodd" d="M89.4494 97.6212C86.5338 97.6774 83.6784 97.759 80.8375 97.9257C78.2062 100.462 75.6879 102.869 73.2461 105.238C75.7918 105.367 78.5306 105.385 81.5118 105.32C84.1485 102.67 86.7871 100.186 89.4494 97.6212Z" fill="#1A1A1A"/>
<path fill-rule="evenodd" clip-rule="evenodd" d="M79.4418 97.9692C76.6629 98.1596 74.2193 98.2647 71.8741 98.359C69.3904 100.647 66.8502 102.954 64.5742 105.191C66.8957 105.229 69.323 105.305 71.9852 105.238C74.4289 102.878 76.9035 100.476 79.4418 97.9692Z" fill="#1A1A1A"/>
<path fill-rule="evenodd" clip-rule="evenodd" d="M70.4102 98.6345C67.9393 98.8394 65.7526 98.9536 63.524 99.0859C61.2517 101.236 58.8755 103.453 56.6797 105.671C58.7771 105.51 60.9838 105.481 63.2871 105.387C65.5704 103.241 67.8409 101.096 70.4102 98.6363V98.6345Z" fill="#1A1A1A"/>
<path fill-rule="evenodd" clip-rule="evenodd" d="M138.513 85.8169C133.989 86.0743 129.707 86.2501 125.566 86.5873C122.498 89.513 119.535 92.3444 116.539 95.3934C120.625 95.1179 124.71 95.0889 129.138 94.9602C132.147 91.9058 135.288 88.8568 138.512 85.8169H138.513Z" fill="#1A1A1A"/>
<path fill-rule="evenodd" clip-rule="evenodd" d="M123.492 86.8792C119.439 87.064 115.715 87.4121 111.957 87.8073C109.102 90.4339 106.336 93.1112 103.504 95.8375C107.154 95.533 110.707 95.5239 114.654 95.4007C117.628 92.4931 120.617 89.5348 123.492 86.8792Z" fill="#1A1A1A"/>
<path fill-rule="evenodd" clip-rule="evenodd" d="M110.224 87.9541C106.656 88.2296 103.349 88.5813 99.9993 88.9438C97.2878 91.3982 94.6693 93.9541 91.9414 96.5173C95.1704 96.1892 98.3411 96.1221 101.887 95.8611C104.546 93.2925 107.372 90.6423 110.224 87.9541Z" fill="#1A1A1A"/>
<path fill-rule="evenodd" clip-rule="evenodd" d="M98.3683 89.0616C95.2122 89.3426 92.2401 89.513 89.2899 89.794C86.7424 92.1722 84.2696 94.5233 81.7422 96.9342C84.5812 96.7874 87.382 96.6623 90.5254 96.5209C93.2113 93.9904 95.7005 91.5305 98.3683 89.0616Z" fill="#1A1A1A"/>
<path fill-rule="evenodd" clip-rule="evenodd" d="M87.8222 89.9717C85.1581 90.1475 82.5049 90.3995 79.7752 90.7856C77.379 92.9735 74.9791 95.2539 72.6484 97.4364C75.1303 97.3168 77.7033 97.0702 80.3492 97.0032C82.9277 94.5904 85.4077 92.3028 87.8222 89.9717Z" fill="#1A1A1A"/>
<path fill-rule="evenodd" clip-rule="evenodd" d="M71.6198 92.4877C69.2764 92.7777 67.0314 93.0442 64.9705 93.2254C62.853 95.1705 60.5935 97.2315 58.4141 99.278C60.4859 99.0932 62.6198 99.0442 64.7482 98.9119C66.9112 96.7892 69.2491 94.6448 71.6198 92.4895V92.4877Z" fill="#1A1A1A"/>
<path fill-rule="evenodd" clip-rule="evenodd" d="M63.7066 93.3342C61.6985 93.5101 59.7833 93.6388 57.9247 93.8726C55.9785 95.7469 54.016 97.498 52.1445 99.3288C53.7882 99.3053 55.6651 99.1711 57.4563 99.1149C59.4572 97.2497 61.6274 95.2176 63.7066 93.3342Z" fill="#1A1A1A"/>
<path fill-rule="evenodd" clip-rule="evenodd" d="M133.619 77.5201C129.548 78.0005 125.623 78.4627 121.667 78.9341C118.864 81.5407 116.129 84.0676 113.25 86.7178C117.131 86.2139 120.774 85.9945 124.927 85.5468C127.764 82.8024 130.712 80.2174 133.619 77.5201Z" fill="#1A1A1A"/>
<path fill-rule="evenodd" clip-rule="evenodd" d="M119.848 79.1244C116.224 79.5195 112.583 80.0325 109.122 80.4658C106.555 82.8875 103.88 85.3329 101.199 87.8398C104.589 87.4646 107.861 87.2018 111.519 86.8972C114.392 84.2054 117.136 81.702 119.848 79.1226V79.1244Z" fill="#1A1A1A"/>
<path fill-rule="evenodd" clip-rule="evenodd" d="M107.464 80.6598C104.246 81.026 101.09 81.4592 97.8535 81.945C95.388 84.258 93.0319 86.3752 90.457 88.7444C93.4036 88.4635 96.4121 88.226 99.5773 88.0157C102.207 85.4943 104.926 82.9909 107.464 80.6598Z" fill="#1A1A1A"/>
<path fill-rule="evenodd" clip-rule="evenodd" d="M96.445 82.1643C93.5877 82.6012 90.7322 82.9782 88.0208 83.3444C85.6646 85.5051 83.2009 87.6731 80.8594 89.8012C83.549 89.5257 86.1967 89.2357 88.9884 88.9202C91.5705 86.5837 94.0141 84.3722 96.445 82.1643Z" fill="#1A1A1A"/>
<path fill-rule="evenodd" clip-rule="evenodd" d="M79.2815 85.2042C76.8233 85.5994 74.5473 85.8713 72.4098 86.1468C70.2012 88.168 67.9727 90.1583 65.8789 92.194C67.9818 91.9747 70.1338 91.7571 72.521 91.4526C74.7423 89.3879 76.9545 87.3613 79.2815 85.206V85.2042Z" fill="#1A1A1A"/>
<path fill-rule="evenodd" clip-rule="evenodd" d="M70.8238 86.7541C68.648 87.0442 66.7092 87.3487 64.732 87.7149C62.6766 89.5457 60.6593 91.3584 58.5 93.3089C60.355 93.066 62.3613 92.9137 64.3676 92.7469C66.4686 90.7385 68.6043 88.7499 70.8256 86.7523L70.8238 86.7541Z" fill="#1A1A1A"/>
<path fill-rule="evenodd" clip-rule="evenodd" d="M142.351 67.8893C138.06 68.5618 134.007 69.1618 130.111 69.8343C127.312 72.1618 124.657 74.5546 121.785 77.1757C125.712 76.5757 129.677 76.1479 133.728 75.6241C136.616 72.9558 139.468 70.4234 142.349 67.8875L142.351 67.8893Z" fill="#1A1A1A"/>
<path fill-rule="evenodd" clip-rule="evenodd" d="M128.261 70.0283C124.425 70.6881 120.762 71.203 117.169 71.8247C114.68 74.1323 112.072 76.3583 109.43 78.7764C112.916 78.2725 116.515 77.8302 120.154 77.2773C122.819 74.8555 125.484 72.4954 128.261 70.0283Z" fill="#1A1A1A"/>
<path fill-rule="evenodd" clip-rule="evenodd" d="M138.197 61.4524C134.295 62.1394 130.556 62.8935 126.9 63.5751C124.271 65.9008 121.7 68.1322 119.125 70.3709C122.574 69.7799 126.319 69.2089 130.248 68.5419C132.843 66.2343 135.551 63.8488 138.198 61.4524H138.197Z" fill="#1A1A1A"/>
<path fill-rule="evenodd" clip-rule="evenodd" d="M180.634 63.894C175.022 64.6681 169.796 65.3877 164.825 65.9043C161.517 68.7521 158.489 71.6742 155.559 74.415C160.384 74.0107 165.523 73.4307 170.971 72.8452C174.071 69.8886 177.294 66.8922 180.633 63.8959L180.634 63.894Z" fill="#1A1A1A"/>
<path fill-rule="evenodd" clip-rule="evenodd" d="M29.1745 119.149C27.9828 118.821 26.8913 118.473 25.849 118.192C24.2308 119.791 22.558 121.422 20.9727 123.217C21.7781 123.635 22.7275 124.139 23.7297 124.596C25.4608 122.85 27.3232 120.942 29.1745 119.149Z" fill="#1A1A1A"/>
<path fill-rule="evenodd" clip-rule="evenodd" d="M33.6405 120.276C32.2429 119.948 30.9472 119.591 29.7027 119.269C27.8021 121.19 25.9871 123.037 24.2578 124.792C25.2637 125.343 26.3716 125.858 27.5816 126.385C29.5496 124.344 31.6014 122.256 33.6405 120.276Z" fill="#1A1A1A"/>
<path fill-rule="evenodd" clip-rule="evenodd" d="M38.8289 121.453C37.2253 121.168 35.7675 120.773 34.3626 120.372C32.2305 122.528 30.1787 124.569 28.2617 126.563C29.5737 126.987 30.893 127.485 32.4583 127.881C34.563 125.731 36.7515 123.57 38.8307 121.453H38.8289Z" fill="#1A1A1A"/>
<path fill-rule="evenodd" clip-rule="evenodd" d="M45.4518 122.774C43.5767 122.37 41.7563 121.942 39.9486 121.656C37.8221 123.764 35.5935 126.128 33.4414 128.359C35.0687 128.802 36.6558 129.449 38.2977 130.09C40.6338 127.578 43.1011 125.191 45.4518 122.773V122.774Z" fill="#1A1A1A"/>
<path fill-rule="evenodd" clip-rule="evenodd" d="M52.6486 123.963C50.4565 123.635 48.2752 123.307 46.4384 122.888C44.0404 125.267 41.5749 127.685 39.1914 130.177C41.0446 130.781 42.9999 131.305 45.0189 131.876C47.4352 129.287 49.979 126.672 52.6486 123.963Z" fill="#1A1A1A"/>
<path fill-rule="evenodd" clip-rule="evenodd" d="M60.8554 125.53C58.3316 125.14 56.0137 124.701 53.8015 124.235C51.039 127.038 48.4514 129.73 46.0352 132.28C48.0651 132.86 50.2627 133.583 52.5187 134.263C55.3523 131.27 57.9726 128.521 60.8554 125.528V125.53Z" fill="#1A1A1A"/>
<path fill-rule="evenodd" clip-rule="evenodd" d="M70.1238 127.475C67.2538 126.985 64.5878 126.432 61.9875 125.905C59.2068 128.859 56.4406 131.704 53.6562 134.644C56.0397 135.42 58.5854 136.176 61.193 136.937C64.1414 133.725 67.2119 130.505 70.1238 127.475Z" fill="#1A1A1A"/>
<path fill-rule="evenodd" clip-rule="evenodd" d="M81.8455 129.173C78.5509 128.517 75.3966 128.026 72.4628 127.598C69.4524 130.596 66.3984 133.877 63.4062 137.08C66.1815 137.742 69.1773 138.454 72.1657 139.44C75.4567 135.829 78.5891 132.476 81.8473 129.173H81.8455Z" fill="#1A1A1A"/>
<path fill-rule="evenodd" clip-rule="evenodd" d="M93.8971 131.305C90.1852 130.582 86.5298 129.764 83.3227 129.131C80.0353 132.581 76.7079 135.982 73.5664 139.507C76.7316 140.473 80.0809 141.528 83.7363 142.391C87.0856 138.67 90.4622 135.059 93.8971 131.307V131.305Z" fill="#1A1A1A"/>
<path fill-rule="evenodd" clip-rule="evenodd" d="M108.226 133.861C103.928 133.114 99.6635 132.467 95.9808 131.406C92.5131 135.228 88.9688 139.081 85.6797 142.834C89.3351 143.89 93.1745 144.965 97.24 145.988C100.957 141.82 104.516 137.876 108.228 133.861H108.226Z" fill="#1A1A1A"/>
<path fill-rule="evenodd" clip-rule="evenodd" d="M124.46 137.29C119.409 136.248 114.764 135.316 110.398 134.327C106.65 138.441 102.863 142.553 99.1641 146.84C103.72 148.1 107.922 149.671 112.743 150.902C116.727 146.325 120.665 141.768 124.46 137.29Z" fill="#1A1A1A"/>
<path fill-rule="evenodd" clip-rule="evenodd" d="M143.224 141.581C137.317 140.425 132.081 139.332 126.802 138.184C122.863 142.703 118.932 147.304 114.996 151.801C119.925 153.429 125.146 155.022 130.624 156.654C134.957 151.377 139.075 146.416 143.224 141.581Z" fill="#1A1A1A"/>
<path fill-rule="evenodd" clip-rule="evenodd" d="M338.523 115.458C334.804 112.489 331.163 109.493 327.835 106.757C322.46 109.797 317.108 112.629 311.703 115.839C314.719 118.984 317.706 122.281 321.315 125.655C327.143 122.214 332.967 118.794 338.521 115.458H338.523Z" fill="#1A1A1A"/>
<path fill-rule="evenodd" clip-rule="evenodd" d="M156.091 109.364C154.612 107.876 153.167 106.491 151.663 105.305C149.569 106.77 147.388 108.331 145.234 109.815C146.572 111.224 147.835 112.737 149.192 114.44C151.51 112.708 153.823 110.99 156.093 109.364H156.091Z" fill="#1A1A1A"/>
<path fill-rule="evenodd" clip-rule="evenodd" d="M97.5324 54.3829C96.9565 53.5055 96.4281 52.5919 95.9416 51.6765C94.0574 53.2336 92.0456 54.9194 90.0703 56.5617C90.3783 57.6149 90.8138 58.5775 91.3058 59.6089C93.3722 57.8741 95.4732 56.1104 97.5305 54.3829H97.5324Z" fill="#1A1A1A"/>
<path fill-rule="evenodd" clip-rule="evenodd" d="M403.416 206.585C398.768 202.95 394.384 199.468 390.125 196.403C384.58 198.107 379.139 200.124 373.43 202.049C377.57 205.399 381.644 209.019 385.832 212.92C391.787 210.683 397.879 208.667 403.418 206.583L403.416 206.585Z" fill="#1A1A1A"/>
<path fill-rule="evenodd" clip-rule="evenodd" d="M110.804 66.1727C110.347 65.6706 109.986 65.1811 109.627 64.7098C108.402 65.5981 107.17 66.47 105.98 67.3401C106.256 67.8784 106.54 68.5111 106.859 69.0404C108.176 68.0887 109.445 67.1443 110.804 66.1709V66.1727Z" fill="#1A1A1A"/>
<path fill-rule="evenodd" clip-rule="evenodd" d="M153.001 43.2003C151.896 42.7308 150.85 42.3157 149.815 41.9332C148.254 42.9937 146.694 44.0903 145.098 45.2468C145.969 45.7707 146.925 46.2366 148.013 46.8384C149.639 45.5713 151.321 44.3876 153.001 43.2021V43.2003Z" fill="#1A1A1A"/>
<path fill-rule="evenodd" clip-rule="evenodd" d="M387.859 86.2175C383.482 84.4193 379.412 82.8495 375.546 81.3704C370.545 83.4405 365.811 85.4236 361.281 87.5263C364.774 89.2683 368.454 91.052 372.57 93.2454C377.854 90.7855 382.99 88.3456 387.859 86.2175Z" fill="#1A1A1A"/>
<path fill-rule="evenodd" clip-rule="evenodd" d="M135.098 40.3978C134.431 40.0842 133.932 39.6728 133.404 39.3628C132.132 40.193 130.92 41.1302 129.695 42.0347C130.144 42.4317 130.557 42.9012 131.098 43.2637C132.318 42.3338 133.706 41.3495 135.098 40.3978Z" fill="#1A1A1A"/>
<path fill-rule="evenodd" clip-rule="evenodd" d="M107.275 33.5495C106.922 33.2921 106.536 33.0945 106.187 32.8571C105.271 33.5658 104.267 34.2982 103.387 34.9743C103.691 35.2498 103.955 35.529 104.227 35.848C105.231 35.0921 106.273 34.3217 107.275 33.5495Z" fill="#1A1A1A"/>
<path fill-rule="evenodd" clip-rule="evenodd" d="M40.0889 103.349C39.9395 102.969 39.7426 102.588 39.6406 102.222C38.9081 102.722 38.2247 103.293 37.4922 103.815C37.5487 104.257 37.6507 104.676 37.7528 105.095C38.5782 104.509 39.3126 103.929 40.0889 103.349Z" fill="#1A1A1A"/>
<path fill-rule="evenodd" clip-rule="evenodd" d="M406.78 145.226C403.664 143.738 401.142 142.333 398.482 140.988C394.575 142.092 390.834 143.091 387.105 144.171C389.392 145.551 391.982 147.159 394.722 148.681C398.806 147.572 402.806 146.365 406.78 145.226Z" fill="#1A1A1A"/>
<path fill-rule="evenodd" clip-rule="evenodd" d="M177.471 36.0003C176.377 35.6776 175.26 35.4565 174.314 35.1266C172.793 36.1181 171.186 37.1477 169.746 38.103C170.663 38.5055 171.521 38.8481 172.534 39.2251C174.048 38.1864 175.82 37.0408 177.471 36.0003Z" fill="#1A1A1A"/>
<path fill-rule="evenodd" clip-rule="evenodd" d="M137.181 11.4889C136.486 11.3602 135.792 11.2497 135.11 11.2152C133.966 11.9403 132.876 12.7687 131.781 13.5627C132.43 13.675 133.082 13.7983 133.737 13.9415C134.906 13.0859 136.043 12.272 137.181 11.4889Z" fill="#1A1A1A"/>
<path fill-rule="evenodd" clip-rule="evenodd" d="M119.897 41.5164C119.266 41.317 118.645 41.1756 118.063 40.9979C117.085 41.7013 115.977 42.4735 114.949 43.1695C115.534 43.3762 116.074 43.5683 116.662 43.7786C117.77 43.01 118.792 42.2868 119.898 41.5164H119.897Z" fill="#1A1A1A"/>
<path fill-rule="evenodd" clip-rule="evenodd" d="M13.5507 122.756C13.3722 122.466 13.2391 122.238 13.0587 121.948C12.4811 122.343 11.9053 122.742 11.375 123.113C11.5044 123.412 11.5882 123.693 11.7686 123.936C12.3481 123.561 12.9749 123.157 13.5507 122.756Z" fill="#1A1A1A"/>
<path fill-rule="evenodd" clip-rule="evenodd" d="M105.041 57.6893C104.41 57.4826 103.82 57.2452 103.24 57.0929C102.318 57.7183 101.305 58.389 100.332 59.0125C100.917 59.2192 101.502 59.4367 102.047 59.6832C103.014 59.0252 104.029 58.3636 105.041 57.6893Z" fill="#1A1A1A"/>
<path fill-rule="evenodd" clip-rule="evenodd" d="M203.129 66.3394C201.761 65.9823 200.449 65.6179 199.188 65.2808C197.528 66.1744 195.911 67.0246 194.16 67.9599C195.456 68.2554 196.728 68.6596 197.998 69.0349C199.649 68.114 201.456 67.2004 203.129 66.3394Z" fill="#1A1A1A"/>
<path fill-rule="evenodd" clip-rule="evenodd" d="M9.13278 116.49C8.96331 116.194 8.74282 115.939 8.57153 115.71C8.00482 116.071 7.48184 116.448 6.95703 116.87C7.1265 117.122 7.29961 117.385 7.46908 117.679C8.04126 117.275 8.61162 116.87 9.13278 116.49Z" fill="#1A1A1A"/>
<path fill-rule="evenodd" clip-rule="evenodd" d="M89.7713 71.8446C89.1864 71.6397 88.596 71.3696 88.0584 71.1539C87.1528 71.7576 86.3364 72.3104 85.4727 72.8996C85.9647 73.128 86.4603 73.3854 87.0033 73.6609C87.9108 73.0337 88.8219 72.4863 89.7713 71.8428V71.8446Z" fill="#1A1A1A"/>
<path fill-rule="evenodd" clip-rule="evenodd" d="M97.1978 47.8499C96.6857 47.7175 96.1846 47.6668 95.6762 47.5725C94.9309 48.0801 94.1492 48.6474 93.3984 49.1242C93.8176 49.2148 94.3278 49.3453 94.7542 49.4903C95.5815 48.9193 96.3669 48.3683 97.1978 47.8517V47.8499Z" fill="#1A1A1A"/>
<path fill-rule="evenodd" clip-rule="evenodd" d="M473.001 178.625C468.842 177.375 464.445 175.89 460.001 174.601C455.884 175.482 451.438 176.109 447.258 176.88C451.254 178.102 455.582 179.534 459.58 180.953C464.25 180.168 468.571 179.445 473.001 178.627V178.625Z" fill="#1A1A1A"/>
<path fill-rule="evenodd" clip-rule="evenodd" d="M153.427 18.9626C152.51 18.9989 151.685 19.008 150.859 19.0152C149.892 19.6297 148.882 20.2714 147.84 20.9584C148.662 20.9204 149.414 20.9892 150.243 20.982C151.286 20.2968 152.33 19.6043 153.425 18.9626H153.427Z" fill="#1A1A1A"/>
<path fill-rule="evenodd" clip-rule="evenodd" d="M20.5405 120.111C20.2599 119.903 19.9793 119.687 19.7952 119.488C19.2723 119.821 18.7001 120.202 18.2227 120.507C18.4067 120.729 18.6381 120.92 18.8696 121.159C19.4417 120.773 19.9684 120.45 20.5405 120.113V120.111Z" fill="#1A1A1A"/>
<path fill-rule="evenodd" clip-rule="evenodd" d="M267.629 97.8931C265.559 97.3892 263.341 97.0883 261.229 96.6315C259.148 97.3547 257.255 97.9874 255.395 98.7306C257.312 99.0822 259.387 99.5771 261.554 100.072C263.578 99.3251 265.657 98.6073 267.627 97.8931H267.629Z" fill="#1A1A1A"/>
<path fill-rule="evenodd" clip-rule="evenodd" d="M260.563 135.449C258.696 134.283 256.848 133.123 254.989 132.113C252.387 133.112 249.734 134.287 247.062 135.42C248.792 136.571 250.51 137.693 252.247 139.002C255.142 137.689 257.885 136.589 260.563 135.447V135.449Z" fill="#1A1A1A"/>
<path fill-rule="evenodd" clip-rule="evenodd" d="M14.6414 129.615C14.4628 129.102 14.3335 128.579 14.2023 128.131C13.4716 128.655 12.6898 129.235 11.9062 129.838C11.9846 130.362 12.0648 130.957 12.1887 131.493C12.9759 130.875 13.8087 130.246 14.6414 129.614V129.615Z" fill="#1A1A1A"/>
<path fill-rule="evenodd" clip-rule="evenodd" d="M215.337 89.0725C213.654 88.1118 212.101 87.2544 210.66 86.4187C208.444 87.6459 206.135 88.9492 203.828 90.2761C205.279 91.1662 206.574 92.2357 208.191 93.1547C210.643 91.7789 212.985 90.4103 215.337 89.0725Z" fill="#1A1A1A"/>
</g>
<defs>
<clipPath id="clip0_170_2577">
<rect width="474" height="258" fill="white" transform="translate(-1)"/>
</clipPath>
</defs>
</svg>
