<svg
    xmlns="http://www.w3.org/2000/svg"
    width="20"
    height="20"
    viewBox="0 0 20 20"
    fill="none"
>
    <path
        d="M14.168 5.83333H15.0013V6.66667C15.0013 6.88768 15.0891 7.09964 15.2454 7.25592C15.4017 7.4122 15.6136 7.5 15.8346 7.5C16.0556 7.5 16.2676 7.4122 16.4239 7.25592C16.5802 7.09964 16.668 6.88768 16.668 6.66667V5.83333H17.5013C17.7223 5.83333 17.9343 5.74554 18.0906 5.58926C18.2468 5.43298 18.3346 5.22101 18.3346 5C18.3346 4.77899 18.2468 4.56702 18.0906 4.41074C17.9343 4.25446 17.7223 4.16667 17.5013 4.16667H16.668V3.33333C16.668 3.11232 16.5802 2.90036 16.4239 2.74408C16.2676 2.5878 16.0556 2.5 15.8346 2.5C15.6136 2.5 15.4017 2.5878 15.2454 2.74408C15.0891 2.90036 15.0013 3.11232 15.0013 3.33333V4.16667H14.168C13.947 4.16667 13.735 4.25446 13.5787 4.41074C13.4224 4.56702 13.3346 4.77899 13.3346 5C13.3346 5.22101 13.4224 5.43298 13.5787 5.58926C13.735 5.74554 13.947 5.83333 14.168 5.83333ZM17.5013 9.16667C17.2803 9.16667 17.0683 9.25446 16.912 9.41074C16.7558 9.56702 16.668 9.77899 16.668 10V15C16.668 15.221 16.5802 15.433 16.4239 15.5893C16.2676 15.7455 16.0556 15.8333 15.8346 15.8333H4.16797C3.94695 15.8333 3.73499 15.7455 3.57871 15.5893C3.42243 15.433 3.33464 15.221 3.33464 15V7.00833L8.23463 11.9167C8.70339 12.3848 9.3388 12.6478 10.0013 12.6478C10.6638 12.6478 11.2992 12.3848 11.768 11.9167L13.8263 9.85833C13.9832 9.70141 14.0714 9.48858 14.0714 9.26667C14.0714 9.04475 13.9832 8.83192 13.8263 8.675C13.6694 8.51808 13.4566 8.42992 13.2346 8.42992C13.0127 8.42992 12.7999 8.51808 12.643 8.675L10.5846 10.7333C10.4289 10.886 10.2194 10.9715 10.0013 10.9715C9.78317 10.9715 9.57374 10.886 9.41797 10.7333L4.50963 5.83333H10.8346C11.0556 5.83333 11.2676 5.74554 11.4239 5.58926C11.5802 5.43298 11.668 5.22101 11.668 5C11.668 4.77899 11.5802 4.56702 11.4239 4.41074C11.2676 4.25446 11.0556 4.16667 10.8346 4.16667H4.16797C3.50493 4.16667 2.86904 4.43006 2.4002 4.8989C1.93136 5.36774 1.66797 6.00363 1.66797 6.66667V15C1.66797 15.663 1.93136 16.2989 2.4002 16.7678C2.86904 17.2366 3.50493 17.5 4.16797 17.5H15.8346C16.4977 17.5 17.1336 17.2366 17.6024 16.7678C18.0712 16.2989 18.3346 15.663 18.3346 15V10C18.3346 9.77899 18.2468 9.56702 18.0906 9.41074C17.9343 9.25446 17.7223 9.16667 17.5013 9.16667Z"
        fill="#999999"
    />
</svg>