<svg width="114" height="35" viewBox="0 0 114 35" fill="none" xmlns="http://www.w3.org/2000/svg">
<path d="M17 34.5C7.61222 34.5 0 26.8878 0 17.5H17V34.5Z" fill="#703BF7"/>
<path d="M0 0.5C9.38778 0.5 17 8.11222 17 17.5H0V0.5Z" fill="#703BF7"/>
<path d="M17 34.5C26.3878 34.5 34 26.8878 34 17.5H17V34.5Z" fill="#703BF7"/>
<path d="M34 17.5C34 8.11222 26.3878 0.5 17 0.5V17.5H34Z" fill="#703BF7"/>
<path d="M111.084 25.1928V19.5214C111.084 18.8662 110.872 18.327 110.449 17.9039C110.04 17.4807 109.507 17.2692 108.852 17.2692C108.415 17.2692 108.026 17.3647 107.685 17.5558C107.344 17.7469 107.078 18.0131 106.886 18.3543C106.695 18.6956 106.6 19.0846 106.6 19.5214L105.719 19.03C105.719 18.2792 105.883 17.6172 106.211 17.0439C106.538 16.457 106.989 15.9997 107.562 15.6721C108.149 15.3309 108.804 15.1603 109.528 15.1603C110.265 15.1603 110.92 15.3514 111.493 15.7336C112.067 16.1021 112.517 16.5867 112.845 17.1873C113.172 17.7742 113.336 18.3884 113.336 19.03V25.1928H111.084ZM104.348 25.1928V15.365H106.6V25.1928H104.348Z" fill="white"/>
<path d="M99.568 25.1928V15.365H101.82V25.1928H99.568ZM100.694 13.5632C100.312 13.5632 99.9912 13.4336 99.7318 13.1742C99.4861 12.9149 99.3633 12.5941 99.3633 12.2119C99.3633 11.8297 99.4861 11.509 99.7318 11.2496C99.9912 10.9903 100.312 10.8606 100.694 10.8606C101.09 10.8606 101.411 10.9903 101.656 11.2496C101.902 11.509 102.025 11.8297 102.025 12.2119C102.025 12.5941 101.902 12.9149 101.656 13.1742C101.411 13.4336 101.09 13.5632 100.694 13.5632Z" fill="white"/>
<path d="M93.1771 25.3976C92.1943 25.3976 91.3071 25.1792 90.5154 24.7424C89.7374 24.2919 89.1163 23.6777 88.6522 22.8997C88.2018 22.1216 87.9766 21.248 87.9766 20.2789C87.9766 19.3098 88.2018 18.443 88.6522 17.6786C89.1027 16.9006 89.7101 16.2864 90.4745 15.8359C91.2525 15.3855 92.1124 15.1603 93.0543 15.1603C93.9688 15.1603 94.7741 15.3718 95.4702 15.795C96.18 16.2181 96.7328 16.7982 97.1287 17.5353C97.5382 18.2724 97.7429 19.1119 97.7429 20.0537C97.7429 20.2175 97.7293 20.3881 97.702 20.5656C97.6883 20.7294 97.661 20.9136 97.6201 21.1184H89.5531V19.2757H96.453L95.6136 20.0127C95.5863 19.4122 95.4702 18.9071 95.2655 18.4976C95.0608 18.0881 94.7673 17.7742 94.3851 17.5558C94.0166 17.3374 93.5593 17.2282 93.0133 17.2282C92.44 17.2282 91.9418 17.3511 91.5187 17.5967C91.0955 17.8424 90.7679 18.1905 90.5359 18.641C90.3038 19.0777 90.1878 19.6033 90.1878 20.2175C90.1878 20.8317 90.3107 21.3709 90.5564 21.835C90.802 22.2991 91.1501 22.6608 91.6006 22.9201C92.051 23.1658 92.5697 23.2887 93.1566 23.2887C93.6617 23.2887 94.1258 23.2 94.5489 23.0225C94.9857 22.8451 95.3542 22.5857 95.6545 22.2445L97.0877 23.6982C96.61 24.2578 96.0299 24.6809 95.3474 24.9676C94.6649 25.2542 93.9415 25.3976 93.1771 25.3976Z" fill="white"/>
<path d="M82.6475 25.1927V11.27H84.8997V25.1927H82.6475ZM80.293 17.4124V15.3649H87.2543V17.4124H80.293Z" fill="white"/>
<path d="M73.3898 25.3976C72.5025 25.3976 71.6972 25.1723 70.9738 24.7219C70.264 24.2715 69.6975 23.664 69.2744 22.8997C68.8649 22.1216 68.6602 21.2549 68.6602 20.2994C68.6602 19.3303 68.8649 18.4635 69.2744 17.6991C69.6975 16.9211 70.264 16.3069 70.9738 15.8564C71.6972 15.3923 72.5025 15.1603 73.3898 15.1603C74.1405 15.1603 74.8025 15.3241 75.3758 15.6517C75.9627 15.9656 76.4268 16.4024 76.7681 16.962C77.1093 17.5217 77.2799 18.1564 77.2799 18.8662V21.6917C77.2799 22.4014 77.1093 23.0362 76.7681 23.5958C76.4405 24.1554 75.9832 24.599 75.3963 24.9266C74.8093 25.2406 74.1405 25.3976 73.3898 25.3976ZM73.7583 23.2682C74.591 23.2682 75.2598 22.9884 75.7648 22.4287C76.2835 21.8691 76.5429 21.1525 76.5429 20.2789C76.5429 19.692 76.4268 19.1733 76.1948 18.7228C75.9627 18.2724 75.6352 17.9243 75.212 17.6786C74.8025 17.4193 74.318 17.2896 73.7583 17.2896C73.2123 17.2896 72.7278 17.4193 72.3046 17.6786C71.8951 17.9243 71.5675 18.2724 71.3218 18.7228C71.0898 19.1733 70.9738 19.692 70.9738 20.2789C70.9738 20.8659 71.0898 21.3845 71.3218 21.835C71.5675 22.2854 71.8951 22.6403 72.3046 22.8997C72.7278 23.1454 73.2123 23.2682 73.7583 23.2682ZM76.3995 25.1928V22.5516L76.7886 20.1561L76.3995 17.781V15.365H78.6517V25.1928H76.3995Z" fill="white"/>
<path d="M63.3116 25.1927V11.27H65.5638V25.1927H63.3116ZM60.957 17.4124V15.3649H67.9184V17.4124H60.957Z" fill="white"/>
<path d="M56.2346 25.3976C55.6886 25.3976 55.1631 25.3293 54.6581 25.1928C54.153 25.0427 53.6889 24.8379 53.2658 24.5786C52.8426 24.3056 52.4741 23.978 52.1602 23.5958L53.5934 22.1626C53.9346 22.5584 54.3236 22.8587 54.7604 23.0635C55.2109 23.2546 55.7159 23.3501 56.2755 23.3501C56.7806 23.3501 57.1628 23.275 57.4221 23.1249C57.6815 22.9747 57.8111 22.7563 57.8111 22.4697C57.8111 22.1694 57.6883 21.9374 57.4426 21.7736C57.1969 21.6098 56.8761 21.4733 56.4803 21.3641C56.0981 21.2412 55.6886 21.1184 55.2518 20.9955C54.8287 20.8727 54.4192 20.7089 54.0233 20.5041C53.6411 20.2857 53.3272 19.9923 53.0815 19.6237C52.8358 19.2552 52.713 18.7774 52.713 18.1905C52.713 17.5626 52.8563 17.0235 53.1429 16.573C53.4432 16.1226 53.8595 15.7745 54.3919 15.5288C54.9379 15.2831 55.5862 15.1603 56.337 15.1603C57.1286 15.1603 57.8248 15.3036 58.4254 15.5902C59.0396 15.8632 59.5515 16.2796 59.961 16.8392L58.5277 18.2724C58.2411 17.9175 57.9135 17.6513 57.545 17.4739C57.1764 17.2965 56.7533 17.2077 56.2755 17.2077C55.8251 17.2077 55.477 17.276 55.2313 17.4125C54.9856 17.549 54.8628 17.7469 54.8628 18.0062C54.8628 18.2792 54.9856 18.4908 55.2313 18.641C55.477 18.7911 55.791 18.9208 56.1732 19.03C56.569 19.1392 56.9785 19.262 57.4016 19.3985C57.8384 19.5214 58.2479 19.6988 58.6301 19.9308C59.026 20.1492 59.3467 20.4495 59.5924 20.8317C59.8381 21.2003 59.961 21.6848 59.961 22.2854C59.961 23.2409 59.6265 23.9985 58.9577 24.5581C58.2889 25.1177 57.3812 25.3976 56.2346 25.3976Z" fill="white"/>
<path d="M41.25 25.1928V10.8606H43.6046V25.1928H41.25ZM42.8675 25.1928V23.043H50.8935V25.1928H42.8675ZM42.8675 18.9071V16.8392H50.1974V18.9071H42.8675ZM42.8675 13.0104V10.8606H50.7911V13.0104H42.8675Z" fill="white"/>
</svg>
