<svg width="1440" height="49" viewBox="0 0 1440 49" fill="none" opacity="0.4" xmlns="http://www.w3.org/2000/svg">
    <g clip-path="url(#clip0_170_2311)">
        <g style="mix-blend-mode:color-dodge">
            <path
                d="M-62.3125 187.986C-10.3705 147.513 47.4959 120.643 113.101 143.967C168.464 163.64 214.315 208.493 255.243 248.819C297.798 290.773 354.913 373.178 424.587 359.117C463.574 351.252 497.869 319.729 526.614 294.152C592.345 235.635 651.046 168.918 710.435 104.183C764.817 44.9141 828.692 -9.11851 882.636 76.374C917.932 132.305 944.737 221.574 1024.44 222.679C1095.91 223.66 1155.51 171.776 1222.24 154.002C1326.1 126.318 1427.61 217.067 1502.21 275.043"
                stroke="#666666" stroke-miterlimit="10" />
            <path
                d="M-62.3125 165.622C-5.00939 120.539 56.132 96.2973 126.181 127.59C184.11 153.48 234.842 202.464 279.67 245.836C319.889 284.765 369.724 350.459 433.139 329.993C471.835 317.497 505.483 284.118 534.353 257.289C592.22 203.528 645.997 145.302 700.589 88.2654C752.614 33.8781 815.737 -19.0279 871.664 56.8055C911.444 110.755 936.768 197.04 1016.18 200.983C1086.92 204.488 1155.32 157.819 1223.51 145.302C1326.65 126.359 1422.56 197.457 1502.23 252.241"
                stroke="#666666" stroke-miterlimit="10" />
            <path
                d="M-62.3125 140.775C-0.691313 93.7521 62.0981 73.0778 134.087 110.212C189.241 138.647 240.14 184.439 285.511 226.226C327.795 265.175 379.716 332.288 443.611 302.581C476.967 287.08 504.419 257.561 530.619 232.589C585.732 180.016 637.862 124.273 691.681 70.4075C747.357 14.6851 810.439 -28.5201 868.201 45.5608C907.96 96.5684 936.602 176.866 1011.99 180.204C1081.35 183.292 1150.25 150.059 1217.94 139.002C1322.43 121.937 1415.2 175.218 1502.23 226.56"
                stroke="#666666" stroke-miterlimit="10" />
            <path
                d="M-62.3125 113.905C8.75837 62.626 76.5542 51.0267 152.235 98.7381C206.618 133.014 256.891 179.453 305.558 221.323C346.194 256.288 391.899 311.176 448.764 279.382C479.22 262.359 504.565 232.005 528.825 207.45C580.475 155.149 630.769 101.575 683.921 50.7764C738.992 -1.85845 802.032 -39.8482 860.649 26.6599C904.414 76.3115 934.724 155.504 1009.93 162.68C1076.2 169.001 1148.42 143.091 1213.6 132.994C1317.78 116.867 1409.44 153.689 1502.19 198.646"
                stroke="#666666" stroke-miterlimit="10" />
            <path
                d="M-62.3125 85.5116C14.6827 33.7112 85.4824 28.162 162.644 82.3615C220.865 123.251 273.183 174.926 328.546 219.738C366.616 250.53 408.733 292.755 456.315 257.373C487.772 233.986 513.451 198.751 539.568 170.044C583.73 121.54 628.996 73.6828 677.58 29.5805C737.115 -24.4729 801.677 -50.008 861.63 15.144C905.52 62.8346 939.146 137.27 1011.26 145.344C1079.52 152.979 1153.32 135.059 1220.93 125.775C1320.35 112.132 1408.84 134.35 1502.21 168.918"
                stroke="#666666" stroke-miterlimit="10" />
            <path
                d="M-62.3125 56.0335C25.4674 1.14558 100.085 6.98697 180.668 71.3254C241.809 120.142 293.918 176.95 357.646 223.013C401.369 254.598 432.889 272.435 472.795 228.416C540.611 153.605 595.536 68.3421 674.993 3.8368C733.318 -43.4991 797.485 -61.1484 855.601 -6.0518C904.706 40.4913 937.749 111.944 1008.63 128.717C1074.07 144.176 1156.2 128.925 1221.99 119.955C1319.1 106.707 1406.73 114.489 1502.23 138.021"
                stroke="#666666" stroke-miterlimit="10" />
            <path
                d="M-62.3125 25.9714C35.981 -31.3783 116.022 -12.7485 198.9 60.6649C258.268 113.258 307.644 174.154 375.023 217.359C424.482 249.091 450.516 254.702 484.351 204.175C537.962 124.127 591.928 42.3063 670.028 -16.7331C733.172 -64.4863 797.151 -75.2093 858.855 -20.1545C910.234 25.7002 946.802 99.4682 1019.46 115.699C1083.9 130.094 1159.1 123.251 1224.06 114.405C1318.36 101.554 1406.96 95.7548 1502.23 106.374"
                stroke="#666666" stroke-miterlimit="10" />
            <path
                d="M-62.3125 -4.195C44.8258 -63.3388 128.642 -34.1946 213.564 46.7292C273.663 103.995 323.206 173.946 397.197 214.543C452.122 244.689 471.397 229.021 497.598 177.346C539.276 95.1708 591.99 12.1191 669.194 -41.4128C734.549 -86.7459 800.655 -88.1437 862.047 -36.0513C915.595 9.40705 954.604 81.2558 1026.34 101.408C1180.21 144.635 1347.65 80.0249 1502.23 74.6634"
                stroke="#666666" stroke-miterlimit="10" />
            <path
                d="M-62.3125 -34.0068C-9.01456 -62.4 41.0918 -79.2565 100.731 -58.5822C150.066 -41.4754 190.472 -5.57187 226.665 30.9992C286.367 91.3739 337.412 172.611 416.952 208.493C476.612 235.405 490.735 199.147 510.865 148.557C543.678 66.0265 593.221 -18.5272 670.633 -66.8436C839.351 -172.176 900.242 40.9504 1034.48 87.1597C1191.24 141.13 1348.93 73.0362 1502.23 43.3495"
                stroke="#666666" stroke-miterlimit="10" />
            <path
                d="M-62.3125 -62.9841C-6.71993 -92.3995 44.5129 -108.797 105.237 -86.4539C156.178 -67.7198 197.356 -29.438 234.258 9.34445C292.291 70.3241 352.306 175.886 438.876 200.169C499.475 217.172 509.029 160.469 524.382 114.823C551.25 34.9213 597.56 -53.179 675.035 -95.4454C835.867 -183.191 916.868 14.101 1038.3 69.8651C1197.6 143.028 1351.87 68.0084 1502.21 12.9745"
                stroke="#666666" stroke-miterlimit="10" />
            <path
                d="M-62.3125 -90.6263C-6.17756 -121.168 44.3877 -137.754 106.176 -116.12C157.409 -98.1784 199.275 -58.1442 235.697 -19.1322C294.794 44.1839 358.147 164.453 450.036 182.395C512.492 194.599 521.253 132.201 534.896 85.3447C558.322 4.96337 600.501 -84.0131 681.46 -121.398C842.522 -195.771 929.384 -6.36471 1048.18 54.8861C1110.03 86.7633 1190.12 103.098 1259.02 91.9996C1346.36 77.9387 1426.23 26.18 1502.23 -15.8152"
                stroke="#666666" stroke-miterlimit="10" />
            <path
                d="M-62.3125 -116.495C-2.52702 -151.064 55.2559 -170.987 121.445 -141.112C171.114 -118.686 210.519 -77.4624 246.127 -37.4491C299.488 22.5083 366.741 148.828 456.503 158.299C524.069 165.434 532.601 91.6449 547.078 41.8265C569.461 -35.1752 609.763 -117.726 690.889 -147.434C850.741 -205.993 943.172 -30.3977 1058.51 38.2174C1116.79 72.8901 1192.97 96.631 1261.15 88.1402C1352.47 76.7495 1431.51 10.6587 1502.19 -42.6437"
                stroke="#666666" stroke-miterlimit="10" />
            <path
                d="M-62.3125 -140.09C-5.86466 -176.056 49.7071 -201.091 116.397 -174.158C169.841 -152.566 212.396 -106.732 249.11 -63.9022C301.595 -2.67218 367.596 123.042 460.842 125.254C527.323 126.818 539.631 51.9654 555.318 1.98005C579.578 -75.2511 617.94 -150.167 703.029 -172.009C865.969 -213.858 956.44 -53.3043 1073.03 23.7183C1130.1 61.4368 1206.22 92.542 1275.75 82.5074C1366.68 69.3643 1439.73 -6.21873 1502.21 -66.8437"
                stroke="#666666" stroke-miterlimit="10" />
            <path
                d="M-62.3125 -160.931C-10.4956 -198.504 43.3238 -229.985 109.221 -207.913C160.579 -190.722 201.027 -148.623 235.593 -108.693C292.207 -43.3114 349.156 72.9943 446.615 80.4211C520.711 86.0539 539.965 14.0383 561.284 -42.9359C590.363 -120.668 630.895 -186.487 719.947 -198.525C877.817 -219.867 968.789 -84.1175 1078.47 1.3333C1133.46 44.163 1207.91 85.1777 1279.86 78.1681C1375.29 68.8636 1445.53 -19.8833 1502.21 -87.9143"
                stroke="#666666" stroke-miterlimit="10" />
            <path
                d="M-62.3125 -177.371C-10.746 -213.357 42.4268 -242.981 107.01 -221.953C157.304 -205.576 197.335 -165.333 231.483 -126.613C286.492 -64.2776 344.713 55.3869 439.377 58.6622C512.575 61.1865 537.628 -3.65263 563.871 -60.6476C597.518 -133.685 643.056 -200.548 729.418 -212.21C881.76 -232.78 976.924 -105.96 1085.04 -24.8484C1138.09 14.9354 1212.92 55.4077 1281.05 54.0725C1376.29 52.1949 1446.84 -38.4087 1502.21 -104.541"
                stroke="#666666" stroke-miterlimit="10" />
            <path
                d="M-62.3125 -188.615C-11.5595 -223.35 40.8414 -252.161 104.152 -233.009C153.07 -218.218 192.516 -180.542 226.122 -143.658C280.255 -84.2217 338.225 34.191 429.823 34.7543C501.644 35.1924 532.226 -21.9695 563.578 -77.6502C601.878 -145.66 652.151 -210.917 735.446 -222.349C882.281 -242.481 981.472 -128.741 1089.65 -53.033C1142.18 -16.2741 1216.19 24.7406 1281.19 30.5402C1375.96 38.9893 1447.66 -52.5114 1502.19 -116.266"
                stroke="#666666" stroke-miterlimit="10" />
            <path
                d="M-62.3125 -195.583C-13.6247 -228.858 38.4216 -257.627 99.2293 -242.189C151.067 -229.046 192.245 -189.846 227.541 -151.898C281.193 -94.2146 334.992 12.9326 424.628 8.94795C492.445 5.94382 527.011 -45.5436 562.431 -96.2174C605.925 -158.47 658.43 -216.841 738.075 -228.149C882.699 -248.698 984.017 -150.375 1096.54 -80.2371C1148.52 -47.8176 1214.48 -9.36887 1274.37 6.1316C1371.45 31.2494 1445.38 -59.7298 1502.21 -123.985"
                stroke="#666666" stroke-miterlimit="10" />
            <path
                d="M-62.3125 -199.171C-14.9597 -231.946 35.981 -261.34 95.7873 -249.178C145.581 -239.039 186.05 -204.157 220.74 -169.13C275.144 -114.221 325.792 -15.6066 412.634 -19.4661C478.51 -22.3868 518.124 -65.738 558.426 -112.448C606.717 -168.4 662.456 -221.556 739.034 -232.697C877.546 -252.849 983.683 -174.241 1097.52 -111.697C1154.01 -80.6544 1213.42 -42.7064 1272.72 -17.5885C1368.2 22.8629 1443.26 -64.6741 1502.19 -128.533"
                stroke="#666666" stroke-miterlimit="10" />
        </g>
    </g>
    <defs>
        <clipPath id="clip0_170_2311">
            <rect width="1566" height="1046" fill="white" transform="translate(-63 -499)"/>
        </clipPath>
    </defs>
</svg>